<?xml version="1.0" encoding="UTF-8" standalone="no"?>
<!-- Created with Inkscape (http://www.inkscape.org/) -->

<svg
   width="300"
   height="300"
   viewBox="0 0 300 300"
   version="1.1"
   id="svg1"
   inkscape:version="1.4 (e7c3feb100, 2024-10-09)"
   sodipodi:docname="piefed_logo_t_300x300.svg"
   inkscape:export-filename="piefed_logo_t_64.png"
   inkscape:export-xdpi="24"
   inkscape:export-ydpi="24"
   xmlns:inkscape="http://www.inkscape.org/namespaces/inkscape"
   xmlns:sodipodi="http://sodipodi.sourceforge.net/DTD/sodipodi-0.dtd"
   xmlns="http://www.w3.org/2000/svg"
   xmlns:svg="http://www.w3.org/2000/svg">
  <sodipodi:namedview
     id="namedview1"
     pagecolor="#ffffff"
     bordercolor="#000000"
     borderopacity="0.25"
     inkscape:showpageshadow="2"
     inkscape:pageopacity="0.0"
     inkscape:pagecheckerboard="0"
     inkscape:deskcolor="#d1d1d1"
     inkscape:document-units="px"
     showgrid="false"
     inkscape:zoom="2.6666667"
     inkscape:cx="150"
     inkscape:cy="150"
     inkscape:window-width="1920"
     inkscape:window-height="1011"
     inkscape:window-x="0"
     inkscape:window-y="32"
     inkscape:window-maximized="1"
     inkscape:current-layer="layer3"
     showguides="false">
    <inkscape:grid
       id="grid1"
       units="px"
       originx="0"
       originy="0"
       spacingx="1"
       spacingy="1"
       empcolor="#0099e5"
       empopacity="0.30196078"
       color="#0099e5"
       opacity="0.14901961"
       empspacing="2"
       enabled="true"
       visible="false" />
    <sodipodi:guide
       position="150.14661,217.16161"
       orientation="1,0"
       id="guide4"
       inkscape:locked="false" />
    <sodipodi:guide
       position="223.5436,149.94492"
       orientation="0,-1"
       id="guide5"
       inkscape:locked="false" />
  </sodipodi:namedview>
  <defs
     id="defs1" />
  <g
     inkscape:groupmode="layer"
     id="layer5"
     inkscape:label="background"
     style="display:none">
    <rect
       style="display:inline;fill:#c6e2ff;fill-opacity:1;stroke:#00008b;stroke-width:0;stroke-linejoin:round;stroke-opacity:1"
       id="rect31"
       width="256"
       height="256"
       x="0"
       y="0"
       inkscape:label="background" />
  </g>
  <g
     inkscape:label="orig_logo"
     inkscape:groupmode="layer"
     id="layer1"
     style="display:none"
     sodipodi:insensitive="true">
    <g
       id="Group-4"
       transform="matrix(0.531441,0,0,0.531441,48.28385,54.553661)"
       inkscape:label="original_logo"
       sodipodi:insensitive="true">
      <path
         d="M 142.27752,3.4222562e-5 C 180.87329,0.02910127 219.47363,16.034962 248.08989,41.800351 L 127.91218,146.37837 c -0.67523,0.58758 -1.27652,1.25519 -1.79062,1.98811 -3.50074,4.99076 -2.29601,11.87669 2.69084,15.38017 l 110.55075,77.66723 0.32564,0.2284 c -27.5954,21.629 -62.65484,34.76221 -97.79169,34.76221 C 65.630504,276.40449 0,214.52968 0,138.20324 0,61.876796 66.392348,-0.05314457 142.27752,3.4222562e-5 Z M 272.6893,65.393258 C 289.80456,87.331958 300,114.92096 300,144.88845 c 0,35.50961 -14.31518,67.67962 -37.49575,91.06661 L 146.29213,154.18105 Z"
         id="piefed"
         fill="#0d6efd" />
      <path
         d="m 217.48029,168.9048 22.83619,-0.008 c 3.32516,-0.001 6.02165,2.69353 6.02277,6.01869 0,0.001 0,0.003 0,0.004 -0.001,3.32808 -2.69878,6.02574 -6.02686,6.02687 l -22.83619,0.008 c -3.32515,0.001 -6.02164,-2.69353 -6.02277,-6.01869 0,-10e-4 0,-0.003 0,-0.004 0.001,-3.32808 2.69879,-6.02573 6.02686,-6.02686 z"
         id="rect60"
         fill="#ffffff"
         transform="rotate(17.8,228.89634,174.92574)" />
      <path
         d="m 282.41972,181.27636 c -5.77702,15.89257 -6.39835,15.83472 -10.2747,22.73713 -2.2087,3.93293 -3.93581,7.04102 -6.19719,8.50846 -2.04134,1.32466 -4.95109,1.60066 -6.66605,0.25768 -2.63337,-2.06218 -2.78159,-4.55952 -1.71646,-7.08586 0.76224,-1.80793 2.16481,-3.46218 3.51019,-5.33644 0.88653,-1.23504 1.72643,-2.67157 2.41926,-3.93473 3.21348,-5.85878 6.20171,-12.53124 8.26713,-19.49976 5.07185,-17.11193 4.15235,-27.74067 4.15235,-36.34629 -0.96396,-15.13088 -4.81065,-29.36481 -11.54007,-42.701796 -0.94564,-1.874427 -1.46427,-3.218011 -1.5559,-4.030753 -0.45633,-3.953868 3.20527,-6.309715 6.83387,-5.634265 2.58951,0.477761 4.12892,2.877539 5.25049,5.134541 7.20591,14.530473 11.33666,29.751043 12.39225,45.661703 0.35737,2.44535 0.90185,26.37781 -4.87517,42.27038 z"
         id="path50-copy"
         fill="#ffffff" />
      <path
         d="m 121.91526,25.816738 c 3.18449,-3.23e-4 5.76629,2.580954 5.76661,5.765443 0,3.91e-4 0,7.81e-4 0,0.0012 l -0.002,23.336652 c -3.2e-4,3.185326 -2.58246,5.767462 -5.76778,5.767785 -3.18449,3.24e-4 -5.76629,-2.580953 -5.76661,-5.765443 0,-3.9e-4 0,-7.8e-4 0,-0.0012 l 0.002,-23.336652 c 3.3e-4,-3.185325 2.58246,-5.767461 5.76779,-5.767785 z"
         id="rect40"
         fill="#ffffff"
         transform="rotate(-7.5,121.91349,43.252264)" />
      <path
         d="m 180.86936,32.881203 c 3.13779,10e-4 5.68122,2.544468 5.68226,5.682263 l 0.006,18.035741 c 0.001,3.135097 -2.53961,5.677441 -5.67471,5.678484 -0.001,0 -0.003,0 -0.004,0 -3.1378,-10e-4 -5.68122,-2.544469 -5.68227,-5.682264 l -0.006,-18.035741 c -0.001,-3.135097 2.53962,-5.677441 5.67471,-5.678483 0.001,-10e-7 0.003,-10e-7 0.004,0 z"
         id="rect42"
         fill="#ffffff"
         transform="rotate(28.999999,180.87425,47.579447)" />
      <path
         d="m 40.252958,74.403332 22.260755,0.0085 c 3.257108,0.0012 5.897205,2.641338 5.898445,5.898445 0.0012,3.253904 -2.635569,5.892719 -5.889473,5.893957 -0.0015,0 -0.003,0 -0.0045,0 l -22.260756,-0.0085 c -3.257107,-0.0012 -5.897205,-2.641337 -5.898445,-5.898445 -0.0012,-3.253904 2.635569,-5.892718 5.889473,-5.893956 0.0015,-10e-7 0.003,-10e-7 0.0045,0 z"
         id="rect46"
         fill="#ffffff"
         transform="rotate(37.999999,51.385579,80.303769)" />
      <path
         d="m 105.74791,74.255736 c 3.04424,-0.0011 5.513,2.465795 5.51413,5.510033 0,0.0014 0,0.0027 0,0.0041 l -0.007,17.812731 c -10e-4,3.04716 -2.47106,5.51709 -5.51822,5.51822 -3.04424,0.001 -5.513,-2.46579 -5.51413,-5.510031 0,-0.0014 0,-0.0027 0,-0.0041 l 0.007,-17.81273 c 10e-4,-3.047162 2.47106,-5.517092 5.51822,-5.518223 z"
         id="rect48"
         fill="#ffffff"
         transform="rotate(-35.6,105.74256,88.678276)" />
      <path
         d="m 70.814308,120.34258 12.974599,8.9e-4 c 2.990556,2e-4 5.414828,2.42447 5.415032,5.41503 2.04e-4,2.99003 -2.423528,5.41409 -5.413557,5.41429 -2.46e-4,0 -4.91e-4,0 -7.37e-4,0 l -12.974599,-8.8e-4 c -2.990555,-2e-4 -5.414828,-2.42448 -5.415032,-5.41503 -2.04e-4,-2.99003 2.423528,-5.41409 5.413557,-5.4143 2.46e-4,0 4.92e-4,0 7.37e-4,0 z"
         id="rect52"
         fill="#ffffff"
         transform="rotate(5,77.301977,125.75769)" />
      <path
         d="m 25.507089,148.0107 19.2955,-0.002 c 3.289971,-3.4e-4 5.9573,2.66642 5.957647,5.95639 0,4.2e-4 0,8.4e-4 0,0.001 -3.47e-4,3.29087 -2.668035,5.95856 -5.958903,5.9589 l -19.2955,0.002 c -3.289971,3.5e-4 -5.9573,-2.66642 -5.957647,-5.95639 0,-4.2e-4 0,-8.4e-4 0,-10e-4 3.47e-4,-3.29086 2.668035,-5.95855 5.958903,-5.9589 z"
         id="rect56"
         fill="#ffffff"
         transform="rotate(-7.8,35.154211,153.96796)" />
      <path
         d="m 116.99312,173.56896 c 3.06479,8.9e-4 5.54907,2.48517 5.54996,5.54995 l 0.004,14.1723 c 8.9e-4,3.06249 -2.48103,5.54584 -5.54351,5.54673 -10e-4,0 -0.002,0 -0.003,0 -3.06478,-8.9e-4 -5.54906,-2.48517 -5.54995,-5.54995 l -0.004,-14.1723 c -8.9e-4,-3.06249 2.48103,-5.54584 5.54351,-5.54673 0.001,0 0.002,0 0.003,0 z"
         id="rect62"
         fill="#ffffff"
         transform="rotate(23.9,116.99679,186.20345)" />
      <path
         d="m 60.593301,200.14101 19.604214,-0.007 c 3.290248,-10e-4 5.958537,2.665 5.959792,5.95525 0,0.002 0,0.003 0,0.005 -0.0013,3.29349 -2.670845,5.96308 -5.964337,5.96434 l -19.604214,0.007 c -3.290248,0.001 -5.958538,-2.665 -5.959792,-5.95525 -1e-6,-0.002 -1e-6,-0.003 0,-0.005 0.0013,-3.29349 2.670845,-5.96308 5.964337,-5.96434 z"
         id="rect64"
         fill="#ffffff"
         transform="rotate(-38.2,70.393135,206.09934)" />
    </g>
  </g>
  <g
     inkscape:groupmode="layer"
     id="layer2"
     inkscape:label="guide"
     sodipodi:insensitive="true"
     style="display:none">
    <circle
       style="display:inline;fill:none;stroke:#001123;stroke-width:2.12003;stroke-opacity:1"
       id="circle2"
       cx="128"
       cy="128"
       r="83.516487"
       sodipodi:insensitive="true"
       inkscape:label="guide" />
  </g>
  <g
     inkscape:groupmode="layer"
     id="layer3"
     inkscape:label="new_logo"
     style="display:inline">
    <g
       id="g1"
       transform="matrix(1.7986955,0,0,1.7986953,-81.225387,-82.21613)"
       inkscape:label="logo_group">
      <path
         id="path20"
         style="display:inline;fill:#0d6efd;fill-opacity:1;stroke:none;stroke-width:2.23589;stroke-linecap:round;stroke-linejoin:round;stroke-dasharray:none;stroke-opacity:1"
         inkscape:label="main_pie"
         d="m 126.31055,49.273438 a 79.828499,79.828499 0 0 0 -79.828128,79.830082 79.828499,79.828499 0 0 0 79.828128,79.82812 79.828499,79.828499 0 0 0 58.89257,-26.11523 6.6156613,6.6156613 0 0 1 -3.08203,-1.17969 c -10.0506,-7.65795 -25.13161,-18.86328 -37.91406,-28.41211 -6.39122,-4.77442 -12.2086,-9.13446 -16.56836,-12.45703 -2.17988,-1.66129 -3.99032,-3.05899 -5.35937,-4.14649 -0.68453,-0.54374 -1.25589,-1.00777 -1.74219,-1.41992 -0.4863,-0.41215 -0.69107,-0.46343 -1.56641,-1.51172 a 6.6156613,6.6156613 0 0 1 0.82618,-9.30664 l 61.1914,-51.347654 a 6.6156613,6.6156613 0 0 1 1.37695,-0.751953 79.828499,79.828499 0 0 0 -56.05468,-23.009765 z" />
      <g
         id="g5"
         transform="matrix(0.70867334,0.844564,-0.844564,0.70867334,149.07041,-68.603738)"
         inkscape:label="slice_group"
         style="display:inline">
        <circle
           style="display:none;fill:none;stroke:#001123;stroke-width:1.99842;stroke-opacity:1"
           id="circle5"
           cx="182.38525"
           cy="-17.719397"
           r="78.725777"
           inkscape:label="slice_circle_for_rotation"
           transform="matrix(0.90702948,0,0,0.90702948,-39.244535,143.57568)" />
        <path
           id="path5"
           style="display:inline;fill:#0d6efd;fill-opacity:1;stroke:#0d6efd;stroke-width:2.205;stroke-linecap:round;stroke-linejoin:round;stroke-dasharray:none;stroke-opacity:1"
           inkscape:label="slice"
           d="m 191.85591,78.645783 -61.19295,51.346987 c 1.76565,2.1145 41.85526,31.51395 62.08225,46.92568 22.69675,-28.94322 22.32752,-69.74493 -0.8893,-98.272667 z"
           sodipodi:nodetypes="cccc"
           transform="matrix(0.58302731,-0.69482489,0.69482489,0.58302731,-39.244535,143.57568)" />
      </g>
      <g
         id="g17"
         inkscape:label="white_marks"
         transform="matrix(1.1025,0,0,1.1025,-13.71578,-12.902128)"
         style="display:inline">
        <path
           d="m 159.07914,136.5639 11.55642,3.70589 c 1.6827,0.53969 2.60937,2.3412 2.06973,4.02391 -1.6e-4,5.1e-4 -4.8e-4,0.002 -6.4e-4,0.002 -0.54119,1.68385 -2.34453,2.61059 -4.02872,2.07048 l -11.55642,-3.7059 c -1.6827,-0.53969 -2.60937,-2.34119 -2.06974,-4.02391 1.7e-4,-5e-4 4.9e-4,-0.002 6.5e-4,-0.002 0.54119,-1.68384 2.34452,-2.61057 4.02872,-2.07047 z"
           id="path8"
           fill="#ffffff"
           style="display:inline;stroke-width:0.531441" />
        <path
           d="m 190.66555,142.05591 c -2.66422,8.21115 -2.98224,8.1927 -4.83694,11.78329 -1.05679,2.0459 -1.88256,3.66238 -3.01016,4.45133 -1.01786,0.7122 -2.49747,0.90485 -3.39635,0.25023 -1.38026,-1.00517 -1.50036,-2.27666 -1.00197,-3.58455 0.3567,-0.93596 1.0428,-1.80493 1.6958,-2.78512 0.43029,-0.6459 0.83321,-1.39376 1.16417,-2.05057 1.53511,-3.04632 2.94079,-6.50379 3.8704,-10.09586 2.28271,-8.82067 1.62423,-14.22695 1.47092,-18.61745 -0.76136,-7.70243 -2.97749,-14.8959 -6.64839,-21.58039 -0.51584,-0.939468 -0.80438,-1.615705 -0.86562,-2.028728 -0.30326,-2.009094 1.52287,-3.276255 3.38619,-2.996294 1.32965,0.197613 2.15779,1.394525 2.7702,2.526047 3.93527,7.284905 6.31391,14.976685 7.13592,23.075325 0.22589,1.24123 0.93006,13.44162 -1.73417,21.65274 z"
           id="path9"
           fill="#ffffff"
           style="display:inline;stroke-width:0.5105" />
        <path
           d="m 109.61556,62.456926 c 1.84985,-0.243728 3.54703,1.05829 3.79075,2.908139 3e-5,2.27e-4 6e-5,4.54e-4 9e-5,6.97e-4 l 1.78356,13.556441 c 0.24342,1.850384 -1.05907,3.547824 -2.90941,3.791615 -1.84984,0.243729 -3.54702,-1.058289 -3.79075,-2.908138 -3e-5,-2.27e-4 -6e-5,-4.54e-4 -9e-5,-6.98e-4 l -1.78356,-13.55644 c -0.24341,-1.850384 1.05908,-3.547824 2.90941,-3.791616 z"
           id="path10"
           fill="#ffffff"
           style="display:inline;stroke-width:0.585914"
           transform="matrix(0.90702948,0,0,0.90702948,12.440617,11.70261)" />
        <path
           d="m 149.66649,67.587205 c 1.60769,0.891822 2.18858,2.917705 1.2978,4.525968 l -5.12009,9.244151 c -0.89004,1.606869 -2.91414,2.188021 -4.52103,1.298009 -5.1e-4,-2.84e-4 -0.002,-8.52e-4 -0.002,-0.0011 -1.60769,-0.891825 -2.18858,-2.917705 -1.2978,-4.525972 l 5.12009,-9.24415 c 0.89004,-1.60687 2.91415,-2.188018 4.52103,-1.298009 5.1e-4,2.83e-4 0.002,8.51e-4 0.002,0.0011 z"
           id="path11"
           fill="#ffffff"
           style="display:inline;stroke-width:0.585914"
           transform="matrix(0.90702948,0,0,0.90702948,12.440617,11.70261)" />
        <path
           d="m 75.886295,92.125469 9.319605,7.287009 c 1.363624,1.066182 1.605426,3.035632 0.54026,4.400052 -1.064135,1.36306 -3.031753,1.60543 -4.394831,0.54131 -6.29e-4,-4.9e-4 -0.0013,-9e-4 -0.0019,-0.002 l -9.319585,-7.286662 c -1.363623,-1.066188 -1.605426,-3.035635 -0.54026,-4.400056 1.064135,-1.363067 3.031752,-1.605434 4.394831,-0.541315 6.29e-4,4.9e-4 0.0013,9.97e-4 0.0019,0.0015 z"
           id="path12"
           fill="#ffffff"
           style="display:inline;stroke-width:0.531441" />
        <path
           d="m 96.556577,92.328279 c 1.449922,-1.038835 3.467453,-0.705618 4.506293,0.744292 4.8e-4,6.67e-4 9.3e-4,0.0013 10e-4,0.002 l 6.07212,8.488499 c 1.03883,1.45203 0.70451,3.47119 -0.74679,4.51104 -1.44996,1.03878 -3.46745,0.70562 -4.5063,-0.74429 -4.8e-4,-6.7e-4 -9.2e-4,-0.001 -0.001,-0.002 l -6.072119,-8.488494 c -1.038831,-1.45203 -0.704506,-3.471195 0.746796,-4.51104 z"
           id="path13"
           fill="#ffffff"
           style="display:inline;stroke-width:0.585914"
           transform="matrix(0.90702948,0,0,0.90702948,12.440617,11.70261)" />
        <path
           d="m 81.299229,117.43443 7.573022,0.66307 c 1.74553,0.15284 3.036742,1.69164 2.884145,3.43719 -0.152569,1.74525 -1.691049,3.03636 -3.436292,2.88379 -1.43e-4,-1e-5 -2.86e-4,-2e-5 -4.3e-4,-4e-5 l -7.573022,-0.66307 c -1.74553,-0.15283 -3.036742,-1.69164 -2.884146,-3.43719 0.152569,-1.74524 1.691049,-3.03636 3.436292,-2.88379 1.44e-4,1e-5 2.88e-4,2e-5 4.31e-4,4e-5 z"
           id="path14"
           fill="#ffffff"
           style="display:inline;stroke-width:0.585914"
           transform="matrix(0.90702948,0,0,0.90702948,12.440617,11.70261)" />
        <path
           d="m 65.491296,133.9377 10.159399,-1.39273 c 1.732224,-0.23747 3.328977,0.97426 3.566448,2.70648 3e-5,2.2e-4 6.1e-5,4.5e-4 7.2e-5,5.3e-4 0.237171,1.73274 -0.975024,3.32976 -2.707721,3.56729 l -10.159399,1.39274 c -1.732224,0.23747 -3.328977,-0.97427 -3.566448,-2.70649 -3e-5,-2.2e-4 -6.1e-5,-4.4e-4 -7.3e-5,-5.2e-4 -0.237169,-1.73275 0.975026,-3.32976 2.707722,-3.5673 z"
           id="path15"
           fill="#ffffff"
           style="display:inline;stroke-width:0.531441" />
        <path
           d="m 111.06437,149.5736 c 1.64152,0.72799 2.38257,2.64847 1.65553,4.2904 l -3.36205,7.59268 c -0.72649,1.64071 -2.64548,2.38182 -4.28618,1.65533 -5.4e-4,-2.4e-4 -10e-4,-4.7e-4 -0.002,-7.1e-4 -1.64151,-0.72799 -2.38256,-2.64847 -1.65553,-4.2904 l 3.36205,-7.59268 c 0.72649,-1.64071 2.64549,-2.38182 4.28619,-1.65533 5.3e-4,2.4e-4 10e-4,4.7e-4 0.002,7.1e-4 z"
           id="path16"
           fill="#ffffff"
           style="display:inline;stroke-width:0.585914"
           transform="matrix(0.90702948,0,0,0.90702948,12.440617,11.70261)" />
        <path
           d="m 74.090285,168.80704 9.024113,-7.10649 c 1.514613,-1.19263 3.709194,-0.9319 4.901941,0.58262 7.25e-4,9.2e-4 0.0011,10e-4 0.0018,0.002 1.192745,1.51694 0.930851,3.71341 -0.585162,4.90733 l -9.024113,7.1065 c -1.514613,1.19263 -3.709195,0.93189 -4.901942,-0.58263 -7.25e-4,-9.2e-4 -0.0011,-0.001 -0.0018,-0.002 -1.192745,-1.51694 -0.930851,-3.7134 0.585162,-4.90733 z"
           id="path17"
           fill="#ffffff"
           style="display:inline;stroke-width:0.585914"
           transform="matrix(0.90702948,0,0,0.90702948,12.440617,11.70261)" />
      </g>
    </g>
  </g>
</svg>
